# WaveFront *.obj file (generated by CINEMA 4D)

v -13.88463973999023 155.52499389648438 -25.65839195251465
v 30.55696868896484 155.52499389648438 0.00001544568477
v 0.92924028635025 197.19337463378906 -0.00006790990301
v -13.88461685180664 155.52499389648438 25.65828895568848
# 4 vertices

vn 0.47110825777054 0.33497905731201 0.81599390506744
vn 0.47110825777054 0.33497905731201 -0.81599390506744
vn -0.94222807884216 0.33497205376625 0
vn 0 -1 0
# 4 normals

vt 0.50224304199219 0.92314147949219 0
vt 0.57499694824219 0.79668045043945 0
vt 0.42948913574219 0.79668045043945 0
vt 0.58264195919037 0.93598234653473 0
vt 1 1 0
vt 0.95979982614517 0.23064506053925 0
# 6 texture coordinates

g Obj1
usemtl Default
f 4/3/1 2/2/1 3/1/1
f 2/3/2 1/2/2 3/1/2
f 1/3/3 4/2/3 3/1/3
f 2/6/4 4/5/4 1/4/4

v -16.01774597167969 149.52499389648438 -29.35304069519043
v -31.12723731994629 107.02499389648438 55.52338027954102
v -16.01772499084473 149.52499389648438 29.35293960571289
v 65.04219055175781 107.02499389648438 0.00001544568477
v 34.82318115234375 149.52499389648438 0.00001544568477
v -31.12724876403809 107.02499389648438 -55.52346801757812
# 6 vertices

vn 0 1 0
# 1 normal

vt 0.58546447753906 0.77847290039062 0
vt 0.65966796875 0.64949035644531 0
vt 0.34481048583984 0.64949035644531 0
vt 0.41901397705078 0.77847290039062 0
# 4 texture coordinates

g Obj2
usemtl Default
f 5/6/5 7/5/5 9/4/5
f 7/10/1 6/9/1 8/8/1 9/7/1
f 9/10/2 8/9/2 10/8/2 5/7/2
f 5/10/3 10/9/3 6/8/3 7/7/3
f 8/6/4 6/5/4 10/4/4

v 99.52740478515625 58.52499389648438 0.00001544568477
v 69.30840301513672 101.02499389648438 0.00001544568477
v -48.3698616027832 58.52499389648438 -85.38854217529297
v -33.26035690307617 101.02499389648438 -59.21811676025391
v -48.36985778808594 58.52499389648438 85.38847351074219
v -33.26034545898438 101.02499389648438 59.21803283691406
# 6 vertices

# 0 normal

vt 0.67015075683594 0.63127899169922 0
vt 0.74435424804688 0.50229644775391 0
vt 0.26012420654297 0.50229644775391 0
vt 0.33433532714844 0.63127899169922 0
# 4 texture coordinates

g Obj3
usemtl Default
f 14/6/5 16/5/5 12/4/5
f 12/14/2 11/13/2 13/12/2 14/11/2
f 16/14/1 15/13/1 11/12/1 12/11/1
f 14/14/3 13/13/3 15/12/3 16/11/3
f 11/6/4 15/5/4 13/4/4

v -65.61247253417969 10.02499294281006 115.25357055664062
v 103.79361724853516 52.52499389648438 0.00001544568477
v 134.01261901855469 10.02499294281006 0.00001544568477
v -50.50296783447266 52.52499389648438 -89.08319091796875
v -50.50296401977539 52.52499389648438 89.08312225341797
v -65.61246490478516 10.02499294281006 -115.25361633300781
# 6 vertices

# 0 normal

vt 0.75482177734375 0.48408508300781 0
vt 0.82902526855469 0.3551025390625 0
vt 0.17544937133789 0.3551025390625 0
vt 0.24965286254883 0.48408508300781 0
# 4 texture coordinates

g Obj4
usemtl Default
f 20/6/5 21/5/5 18/4/5
f 18/18/2 19/17/2 22/16/2 20/15/2
f 20/18/3 22/17/3 17/16/3 21/15/3
f 21/18/1 17/17/1 19/16/1 18/15/1
f 19/6/4 17/5/4 22/4/4

v 168.49783325195312 -38.47500610351562 0.00001544568477
v -82.85507202148438 -38.47500610351562 -145.11869812011719
v 138.27883911132812 4.0249924659729 0.00001544568477
v -67.74557495117188 4.0249924659729 -118.94826507568359
v -82.85509490966797 -38.47500610351562 145.11865234375
v -67.74558258056641 4.0249924659729 118.94821929931641
# 6 vertices

# 0 normal

vt 0.83950805664062 0.33689880371094 0
vt 0.91371154785156 0.20791625976562 0
vt 0.09076881408691 0.20791625976562 0
vt 0.16497421264648 0.33689880371094 0
# 4 texture coordinates

g Obj5
usemtl Default
f 25/22/2 23/21/2 24/20/2 26/19/2
f 26/22/3 24/21/3 27/20/3 28/19/3
f 23/6/4 27/5/4 24/4/4
f 26/6/5 28/5/5 25/4/5
f 28/22/1 27/21/1 23/20/1 25/19/1

v 202.54348754882812 -86.35678100585938 0.00001544568477
v 172.76405334472656 -44.47500610351562 0.00001544568477
v -99.87791442871094 -86.35678100585938 -174.60307312011719
v -99.87792205810547 -86.35678100585938 174.60307312011719
v -84.98819732666016 -44.47500610351562 148.81330871582031
v -84.98818206787109 -44.47500610351562 -148.81333923339844
# 6 vertices

# 0 normal

vt 0.08029365539551 0.189697265625 0
vt 0.9241943359375 0.189697265625 0
vt 0.997314453125 0.06259155273438 0
vt 0.007169008255 0.06259155273438 0
# 4 texture coordinates

g Obj6
usemtl Default
f 32/26/1 29/25/1 30/24/1 33/23/1
f 29/26/2 31/25/2 34/24/2 30/23/2
f 31/26/3 32/25/3 33/24/3 34/23/3
f 29/6/4 32/5/4 31/4/4
f 34/6/5 33/5/5 30/4/5

